<svg width="40" height="40" viewBox="0 0 40 40" fill="none" xmlns="http://www.w3.org/2000/svg">
<path d="M37.3914 3.04517V10.8512H35.8302V13.9736H34.269V15.5348H32.7078V13.9736H31.1466V12.4124H29.5854V10.8512H28.0242V9.28998H26.463V7.72878H24.9018V6.16757H26.463V4.60637H29.5854V3.04517H37.3914Z" fill="#D5583C"/>
<path d="M18.6573 21.7795V24.9019H17.0961V26.4632H15.5349V28.0244H13.9737V29.5856H12.4125V31.1468H9.2901V28.0244H10.8513V26.4632H12.4125V24.9019H13.9737V23.3407H15.5349V21.7795H18.6573Z" fill="#D5583C"/>
<path d="M31.1469 15.5348V13.9736H29.5857V12.4124H28.0245V10.8512H26.4633V9.28996H24.9021V7.72876H23.3409V9.28996H21.7797V10.8512H20.2185V12.4124H18.6573V13.9736H17.0961V15.5348H7.72884V17.096H6.16763V18.6572H4.60643V20.2184H3.04523V23.3408H9.29004V21.7796H10.8512V20.2184H12.4124V18.6572H13.9737V17.096H15.5349V18.6572H13.9737V20.2184H12.4124V23.3408H13.9737V21.7796H15.5349V20.2184H20.2185V24.902H18.6573V26.4632H17.0961V28.0244H20.2185V26.4632H21.7797V24.902H23.3409V26.4632H21.7797V28.0244H20.2185V29.5856H18.6573V31.1468H17.0961V37.3916H20.2185V35.8304H21.7797V34.2692H23.3409V32.708H24.9021V23.3408H26.4633V21.7796H28.0245V20.2184H29.5857V18.6572H31.1469V17.096H32.7081V15.5348H31.1469ZM28.0245 13.9736V17.096H26.4633V18.6572H23.3409V17.096H21.7797V13.9736H23.3409V12.4124H26.4633V13.9736H28.0245Z" fill="#D5583C"/>
</svg>
