<svg width="40" height="41" viewBox="0 0 40 41" fill="none" xmlns="http://www.w3.org/2000/svg">
<path d="M28.3333 15.4999V18.8333H26.6667V20.4999H25V22.1666H23.3333V23.8333H21.6667V25.4999H20V27.1666H16.6667V25.4999H15V23.8333H13.3333V22.1666H11.6667V18.8333H13.3333V17.1666H16.6667V18.8333H20V17.1666H21.6667V15.4999H23.3333V13.8333H26.6667V15.4999H28.3333Z" fill="#006D4B"/>
<path d="M36.6667 13.8334V12.1667H35V10.5001H33.3333V8.83341H31.6667V7.16675H30V5.50008H28.3333V3.83341H26.6667V2.16675H13.3333V3.83341H11.6667V5.50008H9.99999V7.16675H8.33332V8.83341H6.66666V10.5001H4.99999V12.1667H3.33332V13.8334H1.66666V27.1667H3.33332V28.8334H4.99999V30.5001H6.66666V32.1667H8.33332V33.8334H9.99999V35.5001H11.6667V37.1667H13.3333V38.8334H26.6667V37.1667H28.3333V35.5001H30V33.8334H31.6667V32.1667H33.3333V30.5001H35V28.8334H36.6667V27.1667H38.3333V13.8334H36.6667ZM35 25.5001H33.3333V27.1667H31.6667V28.8334H30V30.5001H28.3333V32.1667H26.6667V33.8334H25V35.5001H15V33.8334H13.3333V32.1667H11.6667V30.5001H9.99999V28.8334H8.33332V27.1667H6.66666V25.5001H4.99999V15.5001H6.66666V13.8334H8.33332V12.1667H9.99999V10.5001H11.6667V8.83341H13.3333V7.16675H15V5.50008H25V7.16675H26.6667V8.83341H28.3333V10.5001H30V12.1667H31.6667V13.8334H33.3333V15.5001H35V25.5001Z" fill="#006D4B"/>
</svg>
