<svg width="40" height="41" viewBox="0 0 40 41" fill="none" xmlns="http://www.w3.org/2000/svg">
<path d="M35 5.50016V3.8335H25V5.50016H23.3333V10.5002H21.6667V13.8335H18.3333V15.5002H15V13.8335H4.99999V15.5002H3.33333V25.5002H4.99999V27.1668H15V25.5002H18.3333V27.1668H21.6667V30.5002H23.3333V35.5002H25V37.1668H35V35.5002H36.6667V25.5002H35V23.8335H26.6667V25.5002H25V23.8335H21.6667V22.1668H20V18.8335H21.6667V17.1668H25V15.5002H26.6667V17.1668H35V15.5002H36.6667V5.50016H35ZM33.3333 12.1668H31.6667V13.8335H28.3333V12.1668H26.6667V8.8335H28.3333V7.16683H31.6667V8.8335H33.3333V12.1668ZM11.6667 22.1668V23.8335H8.33333V22.1668H6.66666V18.8335H8.33333V17.1668H11.6667V18.8335H13.3333V22.1668H11.6667ZM28.3333 27.1668H31.6667V28.8335H33.3333V32.1668H31.6667V33.8335H28.3333V32.1668H26.6667V28.8335H28.3333V27.1668Z" fill="#B267AA"/>
</svg>
