<svg width="155" height="100" viewBox="0 0 155 100" fill="none" xmlns="http://www.w3.org/2000/svg">
<g clip-path="url(#clip0_20401_6285)">
<path d="M48.793 72.7563H65.8933V67.3394H55.6703V64.0468H65.1233V58.8158H55.6703V55.6293H65.8933V50.239H48.793V72.7563Z" fill="white"/>
<path d="M103.678 58.7891L100.439 58.1518C98.9254 57.8598 98.2881 57.3552 98.2881 56.3993C98.2881 55.3903 99.191 54.7265 100.412 54.7265C101.82 54.7265 102.669 55.4965 102.696 56.8242H109.653C109.441 52.735 106.254 49.8141 100.598 49.8141C94.9424 49.8141 91.3046 52.7615 91.3046 57.1428C91.3046 60.9134 93.3227 63.197 98.0757 64.1529L101.421 64.8167C102.643 65.0823 103.147 65.5602 103.147 66.4896C103.147 67.5252 102.404 68.2156 100.89 68.2156C99.1909 68.2156 98.1554 67.2065 98.1288 65.6133H91.0391C91.1187 70.6585 95.0752 73.2076 100.758 73.2076C106.44 73.2076 110.078 70.2336 110.078 65.5071C110.104 61.3648 107.476 59.5326 103.678 58.7891Z" fill="white"/>
<path d="M143.139 77.6952C143.139 89.1663 133.765 98.6458 122.188 98.6458C110.611 98.6458 101.237 89.1928 101.237 77.6952H99.8831C99.8831 89.1663 90.4301 98.6458 78.9325 98.6458C67.4349 98.6458 58.035 89.1928 58.035 77.6952H56.6807C56.6807 89.1663 47.2277 98.6458 35.7301 98.6458C24.2325 98.6458 14.7795 89.1928 14.7795 77.6952V72.7563H17.1428L21.4179 57.7536V72.7563H27.5517V50.239H17.9659L14.8061 61.3118V45.0611C14.8061 33.5901 24.1794 24.1105 35.7567 24.1105C47.334 24.1105 56.7073 33.5635 56.7073 45.0611H58.0615C58.0615 33.5901 67.5145 24.1105 79.0121 24.1105C90.5097 24.1105 99.9627 33.5635 99.9627 45.0611H101.317C101.317 33.5901 110.77 24.1105 122.268 24.1105C133.765 24.1105 143.218 33.5635 143.218 45.0611V58.5237H140.271V50.2125H133.393V72.7563H140.271V64.2061H143.218L143.139 77.6952ZM147.44 50.239V58.5502H144.493V45.0877C144.493 32.82 134.562 22.7828 122.188 22.7828C112.443 22.7828 104.132 29.0494 101.158 37.7324C100.972 38.2103 100.866 38.4228 100.573 38.4228C100.281 38.4228 100.175 38.2369 99.9893 37.7324C96.9888 29.0494 88.7041 22.7828 78.959 22.7828C69.2139 22.7828 60.9027 29.0494 57.9288 37.7324C57.7429 38.2103 57.6367 38.4228 57.3446 38.4228C57.0525 38.4228 56.9728 38.2369 56.7604 37.7324C53.7864 29.0494 45.4752 22.7828 35.7301 22.7828C23.3828 22.7828 13.4253 32.82 13.4253 45.0877V61.3383L10.2389 50.239H0.679688V72.7563H6.81352V57.8333L11.0621 72.7563H13.4519V77.6952C13.4519 89.9629 23.3828 100 35.7567 100C45.5018 100 53.813 93.7334 56.787 85.0505C56.9728 84.5725 57.079 84.3867 57.3711 84.3867C57.6632 84.3867 57.7694 84.5725 57.9553 85.0505C60.9558 93.7334 69.2405 100 78.9856 100C88.7307 100 97.0419 93.7334 100.016 85.0505C100.202 84.5725 100.308 84.3867 100.6 84.3867C100.892 84.3867 100.998 84.5725 101.184 85.0505C104.185 93.7334 112.469 100 122.214 100C134.562 100 144.519 89.9629 144.519 77.6952V64.1795H147.467V72.7563H154.344V50.239H147.44Z" fill="white"/>
<path d="M139.261 11.7631C142.182 11.7631 143.934 10.2762 143.934 7.9129C143.934 5.84174 142.607 4.91237 140.695 4.54063L139.048 4.22199C138.305 4.08922 137.96 3.82369 137.96 3.34572C137.96 2.86776 138.411 2.49602 139.022 2.49602C139.739 2.49602 140.164 2.89432 140.164 3.5316H143.669C143.616 1.46044 142.022 0 139.181 0C136.34 0 134.508 1.48699 134.508 3.69092C134.508 5.60276 135.517 6.718 137.907 7.22252L139.58 7.56771C140.19 7.70048 140.456 7.93946 140.456 8.41742C140.456 8.92193 140.084 9.29368 139.341 9.29368C138.491 9.29368 137.96 8.78917 137.96 7.99257H134.402C134.428 10.4886 136.42 11.7631 139.261 11.7631ZM126.887 0.212427L125.214 4.00956L123.515 0.212427H119.585L123.462 7.64737V11.5242H126.914V7.67392L130.658 0.212427H126.887ZM111.221 11.7631C114.141 11.7631 115.894 10.2762 115.894 7.9129C115.894 5.84174 114.566 4.91237 112.654 4.54063L111.035 4.22199C110.265 4.08922 109.946 3.82369 109.946 3.34572C109.946 2.86776 110.397 2.49602 111.008 2.49602C111.725 2.49602 112.15 2.89432 112.15 3.5316H115.655C115.549 1.46044 113.956 0 111.114 0C108.273 0 106.441 1.48699 106.441 3.69092C106.441 5.60276 107.45 6.718 109.84 7.22252L111.513 7.56771C112.123 7.70048 112.389 7.93946 112.389 8.41742C112.389 8.92193 112.017 9.29368 111.274 9.29368C110.424 9.29368 109.893 8.78917 109.893 7.99257H106.335C106.361 10.4886 108.379 11.7631 111.221 11.7631ZM98.0501 6.718L94.7575 0.23898H90.2434V11.5507H93.4563V4.24854L97.28 11.5242H101.263V0.212427H98.0501V6.718ZM84.9062 0.212427H76.3294V11.5242H84.9062V8.81572H79.7813V7.14286H84.5344V4.51407H79.7813V2.92087H84.9062V0.212427ZM66.6109 11.7631C69.5317 11.7631 71.2843 10.2762 71.2843 7.9129C71.2843 5.84174 69.9566 4.91237 68.0448 4.54063L66.425 4.22199C65.655 4.08922 65.3363 3.82369 65.3363 3.34572C65.3363 2.86776 65.7877 2.49602 66.3984 2.49602C67.1154 2.49602 67.5402 2.89432 67.5402 3.5316H71.0453C70.9656 1.46044 69.3459 0 66.5312 0C63.7166 0 61.8578 1.48699 61.8578 3.69092C61.8578 5.60276 62.8669 6.718 65.2567 7.22252L66.9295 7.56771C67.5402 7.70048 67.8058 7.93946 67.8058 8.41742C67.8058 8.92193 67.434 9.29368 66.6905 9.29368C65.8408 9.29368 65.3098 8.78917 65.3098 7.99257H61.7516C61.7782 10.4886 63.7697 11.7631 66.6109 11.7631ZM53.4404 6.718L50.1478 0.212427H45.6603V11.5242H48.8732V4.24854L52.6969 11.5242H56.6799V0.212427H53.467L53.4404 6.718ZM35.0124 8.97504C33.6581 8.97504 32.9943 7.96601 32.9943 5.8683C32.9943 3.77058 33.7113 2.76155 35.0124 2.76155C36.3135 2.76155 37.0304 3.77058 37.0304 5.8683C37.0304 7.96601 36.3666 8.97504 35.0124 8.97504ZM35.0124 11.7631C38.4112 11.7631 40.5886 9.74509 40.5886 5.89485C40.5886 2.04461 38.4377 0 35.0124 0C31.587 0 29.4362 2.01806 29.4362 5.8683C29.4362 9.71853 31.5073 11.7631 35.0124 11.7631ZM19.638 11.7631C22.7182 11.7631 24.8424 10.2762 24.9221 6.98354H21.3905C21.3374 8.04567 20.886 8.97504 19.6911 8.97504C18.3103 8.97504 17.6996 7.88635 17.6996 5.8683C17.6996 3.85024 18.39 2.76155 19.6645 2.76155C20.7798 2.76155 21.3108 3.47849 21.3639 4.69995H24.8955C24.869 1.69942 22.7978 0 19.5849 0C16.3719 0 14.168 2.07116 14.168 5.89485C14.168 9.71853 16.1329 11.7631 19.638 11.7631Z" fill="white"/>
</g>
<defs>
<clipPath id="clip0_20401_6285">
<rect width="153.638" height="100" fill="white" transform="translate(0.679688)"/>
</clipPath>
</defs>
</svg>
