<svg width="42" height="30" viewBox="0 0 42 30" fill="none" xmlns="http://www.w3.org/2000/svg">
<path d="M41.383 13.8037V6.78389H34.1135V3.78096L34.1408 0H27.0742V22.9665C27.0742 23.8895 27.2562 24.8035 27.6099 25.656C27.9635 26.5086 28.4818 27.2831 29.1351 27.9351C29.7884 28.5871 30.5639 29.1039 31.4171 29.4559C32.2704 29.8079 33.1847 29.9881 34.1077 29.9863L41.383 29.9746V23.0699H35.9328C35.6916 23.0701 35.4526 23.0228 35.2296 22.9306C35.0066 22.8383 34.804 22.7031 34.6334 22.5324C34.4628 22.3618 34.3275 22.1592 34.2353 21.9363C34.1431 21.7133 34.0957 21.4743 34.096 21.233V18.5031H34.1155C34.1155 16.9431 34.1155 15.3832 34.1155 13.7979L41.383 13.8037Z" fill="white"/>
<path d="M19.1421 6.78389H24.6604V0H17.6406V30H24.6604V15.949C24.6604 12.9798 23.3204 10.1693 21.0135 8.30018L19.1421 6.78389Z" fill="white"/>
<path d="M7.28935 21.233V0H0.269531V22.9665C0.26953 23.8895 0.451554 24.8035 0.805186 25.656C1.15882 26.5086 1.67712 27.2831 2.33041 27.9351C2.98371 28.5871 3.75918 29.1039 4.61244 29.4559C5.4657 29.8079 6.38 29.9881 7.303 29.9863L15.2101 29.9746V23.0699H9.12621C8.63904 23.0699 8.17183 22.8763 7.82735 22.5319C7.48288 22.1874 7.28935 21.7202 7.28935 21.233Z" fill="white"/>
</svg>
