<svg xmlns="http://www.w3.org/2000/svg" viewBox="0 0 720 648" width="720" height="648" role="img" aria-labelledby="t d">
<title id="t">Clients and models running the protocol</title>
<desc id="d">Waffle chart: Hermes 172 residents, Claude Code 41, OpenClaw 27, of 240 total. Model mix across 410,000 requests and 21.3 billion tokens: Gemini 3.5 Flash 78 percent, Claude Opus 4.7 8 percent, Gemini previews 6 percent, GPT-5.5 3 percent, other 5 percent.</desc>
<g font-family="Public Sans, system-ui, -apple-system, 'Segoe UI', sans-serif">
<rect x="32" y="28" width="13" height="13" rx="3" fill="#199e70"/>
<text x="53" y="39" font-size="15" fill="#F4FBF6">Hermes <tspan fill="#C3CCC7">172</tspan></text>
<rect x="196" y="28" width="13" height="13" rx="3" fill="#c98500"/>
<text x="217" y="39" font-size="15" fill="#F4FBF6">Claude Code <tspan fill="#C3CCC7">41</tspan></text>
<rect x="372" y="28" width="13" height="13" rx="3" fill="#9085e9"/>
<text x="393" y="39" font-size="15" fill="#F4FBF6">OpenClaw <tspan fill="#C3CCC7">27</tspan></text>
<rect x="32" y="68" width="34" height="34" rx="6" fill="#199e70"/>
<rect x="72" y="68" width="34" height="34" rx="6" fill="#199e70"/>
<rect x="112" y="68" width="34" height="34" rx="6" fill="#199e70"/>
<rect x="152" y="68" width="34" height="34" rx="6" fill="#199e70"/>
<rect x="192" y="68" width="34" height="34" rx="6" fill="#199e70"/>
<rect x="232" y="68" width="34" height="34" rx="6" fill="#199e70"/>
<rect x="272" y="68" width="34" height="34" rx="6" fill="#199e70"/>
<rect x="312" y="68" width="34" height="34" rx="6" fill="#199e70"/>
<rect x="352" y="68" width="34" height="34" rx="6" fill="#199e70"/>
<rect x="392" y="68" width="34" height="34" rx="6" fill="#199e70"/>
<rect x="32" y="108" width="34" height="34" rx="6" fill="#199e70"/>
<rect x="72" y="108" width="34" height="34" rx="6" fill="#199e70"/>
<rect x="112" y="108" width="34" height="34" rx="6" fill="#199e70"/>
<rect x="152" y="108" width="34" height="34" rx="6" fill="#199e70"/>
<rect x="192" y="108" width="34" height="34" rx="6" fill="#199e70"/>
<rect x="232" y="108" width="34" height="34" rx="6" fill="#199e70"/>
<rect x="272" y="108" width="34" height="34" rx="6" fill="#199e70"/>
<rect x="312" y="108" width="34" height="34" rx="6" fill="#199e70"/>
<rect x="352" y="108" width="34" height="34" rx="6" fill="#199e70"/>
<rect x="392" y="108" width="34" height="34" rx="6" fill="#199e70"/>
<rect x="32" y="148" width="34" height="34" rx="6" fill="#199e70"/>
<rect x="72" y="148" width="34" height="34" rx="6" fill="#199e70"/>
<rect x="112" y="148" width="34" height="34" rx="6" fill="#199e70"/>
<rect x="152" y="148" width="34" height="34" rx="6" fill="#199e70"/>
<rect x="192" y="148" width="34" height="34" rx="6" fill="#199e70"/>
<rect x="232" y="148" width="34" height="34" rx="6" fill="#199e70"/>
<rect x="272" y="148" width="34" height="34" rx="6" fill="#199e70"/>
<rect x="312" y="148" width="34" height="34" rx="6" fill="#199e70"/>
<rect x="352" y="148" width="34" height="34" rx="6" fill="#199e70"/>
<rect x="392" y="148" width="34" height="34" rx="6" fill="#199e70"/>
<rect x="32" y="188" width="34" height="34" rx="6" fill="#199e70"/>
<rect x="72" y="188" width="34" height="34" rx="6" fill="#199e70"/>
<rect x="112" y="188" width="34" height="34" rx="6" fill="#199e70"/>
<rect x="152" y="188" width="34" height="34" rx="6" fill="#199e70"/>
<rect x="192" y="188" width="34" height="34" rx="6" fill="#199e70"/>
<rect x="232" y="188" width="34" height="34" rx="6" fill="#199e70"/>
<rect x="272" y="188" width="34" height="34" rx="6" fill="#199e70"/>
<rect x="312" y="188" width="34" height="34" rx="6" fill="#199e70"/>
<rect x="352" y="188" width="34" height="34" rx="6" fill="#199e70"/>
<rect x="392" y="188" width="34" height="34" rx="6" fill="#199e70"/>
<rect x="32" y="228" width="34" height="34" rx="6" fill="#199e70"/>
<rect x="72" y="228" width="34" height="34" rx="6" fill="#199e70"/>
<rect x="112" y="228" width="34" height="34" rx="6" fill="#199e70"/>
<rect x="152" y="228" width="34" height="34" rx="6" fill="#199e70"/>
<rect x="192" y="228" width="34" height="34" rx="6" fill="#199e70"/>
<rect x="232" y="228" width="34" height="34" rx="6" fill="#199e70"/>
<rect x="272" y="228" width="34" height="34" rx="6" fill="#199e70"/>
<rect x="312" y="228" width="34" height="34" rx="6" fill="#199e70"/>
<rect x="352" y="228" width="34" height="34" rx="6" fill="#199e70"/>
<rect x="392" y="228" width="34" height="34" rx="6" fill="#199e70"/>
<rect x="32" y="268" width="34" height="34" rx="6" fill="#199e70"/>
<rect x="72" y="268" width="34" height="34" rx="6" fill="#199e70"/>
<rect x="112" y="268" width="34" height="34" rx="6" fill="#199e70"/>
<rect x="152" y="268" width="34" height="34" rx="6" fill="#199e70"/>
<rect x="192" y="268" width="34" height="34" rx="6" fill="#199e70"/>
<rect x="232" y="268" width="34" height="34" rx="6" fill="#199e70"/>
<rect x="272" y="268" width="34" height="34" rx="6" fill="#199e70"/>
<rect x="312" y="268" width="34" height="34" rx="6" fill="#199e70"/>
<rect x="352" y="268" width="34" height="34" rx="6" fill="#199e70"/>
<rect x="392" y="268" width="34" height="34" rx="6" fill="#199e70"/>
<rect x="32" y="308" width="34" height="34" rx="6" fill="#199e70"/>
<rect x="72" y="308" width="34" height="34" rx="6" fill="#199e70"/>
<rect x="112" y="308" width="34" height="34" rx="6" fill="#199e70"/>
<rect x="152" y="308" width="34" height="34" rx="6" fill="#199e70"/>
<rect x="192" y="308" width="34" height="34" rx="6" fill="#199e70"/>
<rect x="232" y="308" width="34" height="34" rx="6" fill="#199e70"/>
<rect x="272" y="308" width="34" height="34" rx="6" fill="#199e70"/>
<rect x="312" y="308" width="34" height="34" rx="6" fill="#199e70"/>
<rect x="352" y="308" width="34" height="34" rx="6" fill="#199e70"/>
<rect x="392" y="308" width="34" height="34" rx="6" fill="#199e70"/>
<rect x="32" y="348" width="34" height="34" rx="6" fill="#199e70"/>
<rect x="72" y="348" width="34" height="34" rx="6" fill="#199e70"/>
<rect x="112" y="348" width="34" height="34" rx="6" fill="#c98500"/>
<rect x="152" y="348" width="34" height="34" rx="6" fill="#c98500"/>
<rect x="192" y="348" width="34" height="34" rx="6" fill="#c98500"/>
<rect x="232" y="348" width="34" height="34" rx="6" fill="#c98500"/>
<rect x="272" y="348" width="34" height="34" rx="6" fill="#c98500"/>
<rect x="312" y="348" width="34" height="34" rx="6" fill="#c98500"/>
<rect x="352" y="348" width="34" height="34" rx="6" fill="#c98500"/>
<rect x="392" y="348" width="34" height="34" rx="6" fill="#c98500"/>
<rect x="32" y="388" width="34" height="34" rx="6" fill="#c98500"/>
<rect x="72" y="388" width="34" height="34" rx="6" fill="#c98500"/>
<rect x="112" y="388" width="34" height="34" rx="6" fill="#c98500"/>
<rect x="152" y="388" width="34" height="34" rx="6" fill="#c98500"/>
<rect x="192" y="388" width="34" height="34" rx="6" fill="#c98500"/>
<rect x="232" y="388" width="34" height="34" rx="6" fill="#c98500"/>
<rect x="272" y="388" width="34" height="34" rx="6" fill="#c98500"/>
<rect x="312" y="388" width="34" height="34" rx="6" fill="#c98500"/>
<rect x="352" y="388" width="34" height="34" rx="6" fill="#c98500"/>
<rect x="392" y="388" width="34" height="34" rx="6" fill="#9085e9"/>
<rect x="32" y="428" width="34" height="34" rx="6" fill="#9085e9"/>
<rect x="72" y="428" width="34" height="34" rx="6" fill="#9085e9"/>
<rect x="112" y="428" width="34" height="34" rx="6" fill="#9085e9"/>
<rect x="152" y="428" width="34" height="34" rx="6" fill="#9085e9"/>
<rect x="192" y="428" width="34" height="34" rx="6" fill="#9085e9"/>
<rect x="232" y="428" width="34" height="34" rx="6" fill="#9085e9"/>
<rect x="272" y="428" width="34" height="34" rx="6" fill="#9085e9"/>
<rect x="312" y="428" width="34" height="34" rx="6" fill="#9085e9"/>
<rect x="352" y="428" width="34" height="34" rx="6" fill="#9085e9"/>
<rect x="392" y="428" width="34" height="34" rx="6" fill="#9085e9"/>
<text x="32" y="490" font-size="13" fill="#848F8B">each square = 1% of the 240 residents with active agents</text>
<line x1="32" y1="512" x2="688" y2="512" stroke="#45534E" stroke-width="1"/>
<text x="32" y="546" font-size="15" fill="#F4FBF6">running on</text>
<text x="688" y="546" font-size="15" fill="#848F8B" text-anchor="end">410k requests &#183; 21.3b tokens</text>
<rect x="32.0" y="562" width="505.4" height="16" rx="4" fill="#F4FBF6"/>
<rect x="539.4" y="562" width="51.8" height="16" rx="4" fill="#A9C4B7"/>
<rect x="593.3" y="562" width="38.9" height="16" rx="4" fill="#7C9E8E"/>
<rect x="634.2" y="562" width="19.4" height="16" rx="4" fill="#5A7A6C"/>
<rect x="655.6" y="562" width="32.4" height="16" rx="4" fill="#3E5A4E"/>
<rect x="32" y="590" width="10" height="10" rx="2" fill="#F4FBF6"/>
<text x="48" y="600" font-size="14" fill="#C3CCC7">Gemini 3.5 Flash <tspan fill="#F4FBF6">78%</tspan></text>
<rect x="206" y="590" width="10" height="10" rx="2" fill="#A9C4B7"/>
<text x="222" y="600" font-size="14" fill="#C3CCC7">Claude Opus 4.7 <tspan fill="#F4FBF6">8%</tspan></text>
<rect x="373" y="590" width="10" height="10" rx="2" fill="#7C9E8E"/>
<text x="389" y="600" font-size="14" fill="#C3CCC7">Gemini previews <tspan fill="#F4FBF6">6%</tspan></text>
<rect x="32" y="614" width="10" height="10" rx="2" fill="#5A7A6C"/>
<text x="48" y="624" font-size="14" fill="#C3CCC7">GPT-5.5 <tspan fill="#F4FBF6">3%</tspan></text>
<rect x="141" y="614" width="10" height="10" rx="2" fill="#3E5A4E"/>
<text x="157" y="624" font-size="14" fill="#C3CCC7">Other <tspan fill="#F4FBF6">5%</tspan></text>
</g></svg>