<svg width="24" height="24" viewBox="0 0 24 24" fill="none" xmlns="http://www.w3.org/2000/svg">
<rect x="0.5" y="0.5" width="23" height="23" rx="1.5" stroke="#E2E8F0"/>
<path d="M15.2008 8.8001C15.2008 10.5674 13.7681 12.0001 12.0008 12.0001C10.2335 12.0001 8.80078 10.5674 8.80078 8.8001C8.80078 7.03279 10.2335 5.6001 12.0008 5.6001C13.7681 5.6001 15.2008 7.03279 15.2008 8.8001Z" fill="#475569"/>
<path d="M5.60156 16.2284V18.3805H18.4016V16.2284C18.4016 15.698 18.1961 15.1815 17.7688 14.8672C16.6496 14.0442 14.5866 13 12.0016 13C9.41649 13 7.35349 14.0442 6.23433 14.8672C5.80701 15.1815 5.60156 15.698 5.60156 16.2284Z" fill="#475569"/>
</svg>
