<svg width="16" height="16" viewBox="0 0 16 16" fill="none" xmlns="http://www.w3.org/2000/svg">
<path d="M8.0001 14.0907C11.3639 14.0907 14.0908 11.3638 14.0908 7.99998C14.0908 4.63619 11.3639 1.9093 8.0001 1.9093C4.63631 1.9093 1.90942 4.63619 1.90942 7.99998C1.90942 11.3638 4.63631 14.0907 8.0001 14.0907Z" stroke="#2A2A2A" strokeLinecap="round" strokeLinejoin="round"/>
<path d="M2.54785 5.72412H3.93955C4.13773 5.70174 4.33837 5.72223 4.52795 5.78418C4.71752 5.84612 4.89157 5.94809 5.0383 6.08317C5.18502 6.21825 5.30099 6.38333 5.37836 6.56714C5.45574 6.75096 5.49269 6.9492 5.48674 7.14854C5.46611 7.43258 5.38715 7.70936 5.25475 7.96149C5.12235 8.21362 4.93934 8.43572 4.71722 8.61394C4.34273 8.84157 4.03404 9.16281 3.82158 9.5461C3.60912 9.9294 3.50023 10.3615 3.50565 10.7997V12.085" stroke="#2A2A2A" strokeLinecap="round" strokeLinejoin="round"/>
<path d="M10.2348 2.33496V3.76758C10.2106 4.15289 10.0929 4.52651 9.89176 4.85604C9.69062 5.18556 9.41217 5.46109 9.08051 5.65869C8.17182 6.29723 7.72974 6.77201 7.72974 7.47604C7.72974 7.65343 7.76468 7.82911 7.83257 7.99299C7.90045 8.15687 7.99994 8.30576 8.12537 8.43119C8.25079 8.55662 8.39973 8.65611 8.56362 8.72399C8.7275 8.79187 8.90313 8.82682 9.08051 8.82682H11.1026C11.3197 8.82682 11.5279 8.91303 11.6814 9.06655C11.835 9.22008 11.9212 9.42834 11.9212 9.64546C11.9212 9.91561 11.8639 10.2922 11.1598 10.6606C10.8652 10.7679 10.6144 10.9701 10.447 11.2353C10.2796 11.5005 10.2049 11.8138 10.2348 12.126V13.5012" stroke="#2A2A2A" strokeLinecap="round" strokeLinejoin="round"/>
</svg>
