<svg width="16" height="16" viewBox="0 0 16 16" fill="none" xmlns="http://www.w3.org/2000/svg">
<rect width="16" height="16" rx="3.55556" fill="#855DCD"/>
<path d="M4.12445 2.48889H11.8756V13.5111H10.7378V8.46222H10.7266C10.6009 7.06683 9.42814 5.97334 8 5.97334C6.57187 5.97334 5.39913 7.06683 5.27339 8.46222H5.26223V13.5111H4.12445V2.48889Z" fill="white"/>
<path d="M2.06223 4.05334L2.52445 5.61778H2.91556V11.9467C2.71919 11.9467 2.56 12.1059 2.56 12.3022V12.7289H2.48889C2.29252 12.7289 2.13334 12.8881 2.13334 13.0844V13.5111H6.11556V13.0844C6.11556 12.8881 5.95637 12.7289 5.76 12.7289H5.68889V12.3022C5.68889 12.1059 5.5297 11.9467 5.33334 11.9467H4.90667V4.05334H2.06223Z" fill="white"/>
<path d="M10.8089 11.9467C10.6125 11.9467 10.4533 12.1059 10.4533 12.3022V12.7289H10.3822C10.1859 12.7289 10.0267 12.8881 10.0267 13.0844V13.5111H14.0089V13.0844C14.0089 12.8881 13.8497 12.7289 13.6533 12.7289H13.5822V12.3022C13.5822 12.1059 13.423 11.9467 13.2267 11.9467V5.61778H13.6178L14.08 4.05334H11.2356V11.9467H10.8089Z" fill="white"/>
</svg>
