<svg width="16" height="16" viewBox="0 0 16 16" fill="none" xmlns="http://www.w3.org/2000/svg">
<path d="M4.37617 6.96612C4.87265 6.96762 5.35837 6.81955 5.7719 6.54062C6.18543 6.26169 6.50816 5.86448 6.69918 5.39925C6.8902 4.93402 6.94093 4.42166 6.84498 3.92713C6.74904 3.4326 6.51071 2.97815 6.16017 2.62122C5.80963 2.26428 5.36266 2.02094 4.87583 1.92205C4.389 1.82316 3.88418 1.87317 3.42535 2.06571C2.96652 2.25824 2.57431 2.58468 2.29833 3.00366C2.02234 3.42264 1.875 3.91532 1.875 4.41935C1.875 5.09348 2.13828 5.74009 2.60712 6.21748C3.07596 6.69488 3.71214 6.9641 4.37617 6.96612Z" stroke="#475569" stroke-linecap="round" stroke-linejoin="round"/>
<path d="M4.37617 14.1199C4.87265 14.1214 5.35837 13.9734 5.7719 13.6944C6.18543 13.4155 6.50816 13.0182 6.69918 12.553C6.8902 12.0877 6.94093 11.5755 6.84498 11.0809C6.74904 10.5864 6.51071 10.1319 6.16017 9.77494C5.80963 9.418 5.36266 9.17474 4.87583 9.07586C4.389 8.97697 3.88418 9.02698 3.42535 9.21952C2.96652 9.41205 2.57431 9.73839 2.29833 10.1574C2.02234 10.5764 1.875 11.0691 1.875 11.5732C1.875 12.2473 2.13828 12.8939 2.60712 13.3713C3.07596 13.8487 3.71214 14.1179 4.37617 14.1199Z" stroke="#475569" stroke-linecap="round" stroke-linejoin="round"/>
<path d="M11.6164 14.1199C12.1129 14.1214 12.5987 13.9734 13.0122 13.6944C13.4257 13.4155 13.7484 13.0182 13.9394 12.553C14.1304 12.0877 14.1812 11.5755 14.0852 11.0809C13.9893 10.5864 13.7509 10.1319 13.4004 9.77494C13.0499 9.418 12.6029 9.17474 12.1161 9.07586C11.6292 8.97697 11.1245 9.02698 10.6656 9.21952C10.2068 9.41205 9.81455 9.73839 9.53856 10.1574C9.26258 10.5764 9.11524 11.0691 9.11523 11.5732C9.11523 12.2473 9.37851 12.8939 9.84735 13.3713C10.3162 13.8487 10.9524 14.1179 11.6164 14.1199Z" stroke="#475569" stroke-linecap="round" stroke-linejoin="round"/>
<path d="M4.5332 9.0339V6.96606" stroke="#475569" stroke-linecap="round" stroke-linejoin="round"/>
<path d="M9.11633 11.5884H6.88477" stroke="#475569" stroke-linecap="round" stroke-linejoin="round"/>
</svg>
