<svg width="16" height="17" viewBox="0 0 16 17" fill="none" xmlns="http://www.w3.org/2000/svg">
<path d="M5.9987 11.5044H4.66536C3.78131 11.5044 2.93346 11.1532 2.30834 10.5281C1.68322 9.903 1.33203 9.05516 1.33203 8.1711C1.33203 7.28705 1.68322 6.4392 2.30834 5.81408C2.93346 5.18896 3.78131 4.83777 4.66536 4.83777H5.9987" stroke="#475569" stroke-linecap="round" stroke-linejoin="round"/>
<path d="M10 4.83777H11.3333C12.2174 4.83777 13.0652 5.18896 13.6904 5.81408C14.3155 6.4392 14.6667 7.28705 14.6667 8.1711C14.6667 9.05516 14.3155 9.903 13.6904 10.5281C13.0652 11.1532 12.2174 11.5044 11.3333 11.5044H10" stroke="#475569" stroke-linecap="round" stroke-linejoin="round"/>
<path d="M5.33203 8.17114H10.6654" stroke="#475569" stroke-linecap="round" stroke-linejoin="round"/>
</svg>
