<svg width="16" height="16" viewBox="0 0 16 16" fill="none" xmlns="http://www.w3.org/2000/svg">
<g clip-path="url(#clip0_25647_8592)">
<path d="M5.10253 14.3507C3.29341 14.3526 1.52202 13.8312 0 12.8489C0.263505 12.8798 0.528568 12.8953 0.793858 12.8954C2.29227 12.8978 3.74796 12.394 4.9269 11.465C4.23214 11.4518 3.55891 11.2206 3.00151 10.8038C2.4441 10.387 2.03046 9.80547 1.81852 9.14072C2.02484 9.1803 2.23442 9.20026 2.44447 9.20032C2.74074 9.19982 3.03564 9.15974 3.32139 9.08112C2.56824 8.92796 1.89098 8.51794 1.40438 7.92054C0.917787 7.32315 0.651786 6.57513 0.651463 5.80326C0.651463 5.78896 0.651463 5.77524 0.651463 5.76094C1.11349 6.01873 1.63021 6.16177 2.15849 6.17812C1.70268 5.87264 1.32906 5.45879 1.07081 4.97335C0.812562 4.48791 0.677685 3.94592 0.678163 3.39552C0.67742 2.80512 0.832829 2.22513 1.12849 1.71487C1.96412 2.74763 3.00664 3.59231 4.18836 4.19408C5.37008 4.79585 6.66458 5.14127 7.98783 5.20788C7.93049 4.95809 7.90163 4.70256 7.9018 4.44622C7.9018 3.55965 8.25241 2.70939 8.87652 2.08249C9.50062 1.45558 10.3471 1.1034 11.2297 1.1034C11.685 1.10278 12.1355 1.19615 12.5534 1.37771C12.9712 1.55928 13.3475 1.82516 13.6588 2.15887C14.4042 2.01169 15.119 1.73735 15.7721 1.34775C15.5236 2.12142 15.0036 2.778 14.309 3.19527C14.9687 3.11678 15.6128 2.9394 16.2201 2.66903C15.7732 3.33986 15.2106 3.92515 14.5588 4.39735C14.5651 4.54118 14.5685 4.6854 14.5689 4.83003C14.5689 9.2474 11.2214 14.3412 5.10015 14.3412" fill="white"/>
</g>
<defs>
<clipPath id="clip0_25647_8592">
<rect width="16" height="16" fill="white"/>
</clipPath>
</defs>
</svg>
