<svg width="194" height="32" viewBox="0 0 194 32" fill="none" xmlns="http://www.w3.org/2000/svg">
<path d="M12.7679 6.3315V25.6716H6.36236V6.3315H12.7679L6.43641 0H0V19.3092L12.6908 32H19.1272V12.6908L12.7679 6.3315Z" fill="white"/>
<path d="M89.0742 19.1581C89.0742 18.1306 89.9721 17.3283 91.1477 17.3283C92.3233 17.3283 93.2212 18.1306 93.2212 19.1581C93.2212 20.1855 92.3418 20.9723 91.1477 20.9723C89.9536 20.9723 89.0742 20.1886 89.0742 19.1581Z" fill="white"/>
<path d="M32.1406 12.7H34.4455V25.6222H32.1406V12.7Z" fill="white"/>
<path d="M37.2734 12.7H39.8776L45.8327 20.8859H46.1505V12.7H48.4739V25.6222H45.8512L39.9146 17.4363H39.5783V25.6222H37.2734V12.7Z" fill="white"/>
<path d="M62.9692 19.1611C62.9692 22.8514 60.1398 25.6222 56.3755 25.6222H51.2812V12.7H56.3755C60.1398 12.7 62.9692 15.4708 62.9692 19.1611ZM60.5903 19.1611C60.5903 17.0815 58.7544 15.5264 56.3014 15.5264H53.5861V22.7928H56.3014C58.7544 22.7928 60.5903 21.2377 60.5903 19.158V19.1611Z" fill="white"/>
<path d="M74.5998 22.7928V25.6222H65.1797V12.7H74.5072V15.5295H67.4846V17.7572H73.8901V20.491H67.4846V22.7959H74.6029L74.5998 22.7928Z" fill="white"/>
<path d="M83.8355 19.1982L88.1429 25.6222H85.4462L82.2619 21.0711H81.8114L78.6457 25.6222H75.7422L80.1422 19.0686L75.9088 12.7H78.6056L81.7158 17.2142H82.1477L85.258 12.7H88.1614L83.8355 19.1982Z" fill="white"/>
<path d="M96.8945 12.7H99.4987L105.454 20.8859H105.772V12.7H108.095V25.6222H105.472L99.5357 17.4363H99.1994V25.6222H96.8945V12.7Z" fill="white"/>
<path d="M120.326 22.7928V25.6222H110.906V12.7H120.234V15.5295H113.211V17.7572H119.617V20.491H113.211V22.7959H120.329L120.326 22.7928Z" fill="white"/>
<path d="M132.35 15.5264H128.249V25.6222H125.944V15.5264H121.844V12.697H132.35V15.5264Z" fill="white"/>
<path d="M133.641 12.7H136.094L138.942 21.2223H139.333L142.012 12.7H144.054L146.751 21.2223H147.164L149.972 12.7H152.577L148.439 25.6222H145.816L143.4 17.7942H142.82L140.404 25.6222H137.781L133.644 12.7H133.641Z" fill="white"/>
<path d="M152.953 19.1611C152.953 15.3597 155.894 12.4748 159.791 12.4748C163.688 12.4748 166.628 15.3597 166.628 19.1611C166.628 22.9625 163.688 25.8474 159.791 25.8474C155.894 25.8474 152.953 22.9625 152.953 19.1611ZM164.246 19.1611C164.246 16.9889 162.318 15.3597 159.788 15.3597C157.257 15.3597 155.329 16.9889 155.329 19.1611C155.329 21.3333 157.257 22.9625 159.788 22.9625C162.318 22.9625 164.246 21.3333 164.246 19.1611Z" fill="white"/>
<path d="M173.911 21.5771H171.121V25.6222H168.816V12.7H174.734C177.339 12.7 179.323 14.61 179.323 17.1401C179.323 19.05 178.199 20.6052 176.515 21.2593L179.492 25.6222H176.684L173.914 21.5771H173.911ZM171.121 18.7477H174.679C176.064 18.7477 176.925 18.112 176.925 17.137C176.925 16.162 176.064 15.5264 174.679 15.5264H171.121V18.7477Z" fill="white"/>
<path d="M185.746 20.3583L183.762 22.0245V25.6191H181.457V12.697H183.762V17.9238H184.231L189.214 12.697H192.904L187.437 18.7076L193.037 25.6191H190.152L185.752 20.3552L185.746 20.3583Z" fill="white"/>
</svg>
