<svg width="35" height="35" viewBox="0 0 35 35" fill="none" xmlns="http://www.w3.org/2000/svg">
<path d="M34.3915 0.045166V7.85118H32.8303V10.9736H31.2691V12.5348H29.7079V10.9736H28.1467V9.41239H26.5855V7.85118H25.0243V6.28998H23.4631V4.72878H21.9019V3.16757H23.4631V1.60637H26.5855V0.045166H34.3915Z" fill="black"/>
<path d="M15.6573 18.7795V21.9019H14.0961V23.4632H12.5349V25.0244H10.9736V26.5856H9.41245V28.1468H6.29004V25.0244H7.85124V23.4632H9.41245V21.9019H10.9736V20.3407H12.5349V18.7795H15.6573Z" fill="black"/>
<path d="M28.1471 12.5348V10.9736H26.5859V9.41237H25.0247V7.85117H23.4635V6.28996H21.9023V4.72876H20.3411V6.28996H18.7799V7.85117H17.2186V9.41237H15.6574V10.9736H14.0962V12.5348H4.72902V14.096H3.16782V15.6572H1.60661V17.2184H0.0454102V20.3408H6.29022V18.7796H7.85143V17.2184H9.41263V15.6572H10.9738V14.096H12.535V15.6572H10.9738V17.2184H9.41263V20.3408H10.9738V18.7796H12.535V17.2184H17.2186V21.902H15.6574V23.4632H14.0962V25.0244H17.2186V23.4632H18.7799V21.902H20.3411V23.4632H18.7799V25.0244H17.2186V26.5856H15.6574V28.1468H14.0962V34.3916H17.2186V32.8304H18.7799V31.2692H20.3411V29.708H21.9023V20.3408H23.4635V18.7796H25.0247V17.2184H26.5859V15.6572H28.1471V14.096H29.7083V12.5348H28.1471ZM25.0247 10.9736V14.096H23.4635V15.6572H20.3411V14.096H18.7799V10.9736H20.3411V9.41237H23.4635V10.9736H25.0247Z" fill="black"/>
</svg>
