<svg width="40" height="41" viewBox="0 0 40 41" fill="none" xmlns="http://www.w3.org/2000/svg">
<path d="M13.3332 20.5H14.9998V22.1667H24.9998V20.5H26.6665V18.8333H28.3332V8.83333H26.6665V7.16667H24.9998V5.5H14.9998V7.16667H13.3332V8.83333H11.6665V18.8333H13.3332V20.5ZM14.9998 12.1667H16.6665V10.5H18.3332V8.83333H21.6665V10.5H23.3332V12.1667H24.9998V15.5H23.3332V17.1667H21.6665V18.8333H18.3332V17.1667H16.6665V15.5H14.9998V12.1667Z" fill="black"/>
<path d="M31.6665 27.1666V25.4999H29.9998V23.8333H9.99984V25.4999H8.33317V27.1666H6.6665V35.4999H9.99984V30.4999H11.6665V28.8333H13.3332V27.1666H26.6665V28.8333H28.3332V30.4999H29.9998V35.4999H33.3332V27.1666H31.6665Z" fill="black"/>
</svg>
