<svg width="606" height="100" viewBox="0 0 606 100" fill="none" xmlns="http://www.w3.org/2000/svg">
<path d="M40.0238 19.7859V80.2237H19.9442V19.7859H40.0238L20.1763 0H0V60.3413L39.782 100H59.9583V39.6587L40.0238 19.7859Z" fill="white"/>
<path d="M279.218 59.8692C279.218 56.6584 282.032 54.1514 285.718 54.1514C289.403 54.1514 292.217 56.6584 292.217 59.8692C292.217 63.0801 289.461 65.5389 285.718 65.5389C281.974 65.5389 279.218 63.0898 279.218 59.8692Z" fill="white"/>
<path d="M100.755 39.6875H107.98V80.0693H100.755V39.6875Z" fill="white"/>
<path d="M116.84 39.6875H125.003L143.671 65.2684H144.667V39.6875H151.95V80.0693H143.729L125.119 54.4884H124.065V80.0693H116.84V39.6875Z" fill="white"/>
<path d="M197.391 59.8784C197.391 71.4106 188.522 80.0693 176.722 80.0693H160.753V39.6875H176.722C188.522 39.6875 197.391 48.3463 197.391 59.8784ZM189.934 59.8784C189.934 53.3795 184.179 48.5198 176.49 48.5198H167.978V71.2274H176.49C184.179 71.2274 189.934 66.3677 189.934 59.8688V59.8784Z" fill="white"/>
<path d="M233.846 71.2274V80.0693H204.316V39.6875H233.556V48.5295H211.542V55.4912H231.621V64.0342H211.542V71.237H233.855L233.846 71.2274Z" fill="white"/>
<path d="M262.795 59.9941L276.298 80.0693H267.844L257.862 65.847H256.45L246.526 80.0693H237.425L251.217 59.5891L237.947 39.6875H246.401L256.15 53.7941H257.504L267.254 39.6875H276.356L262.795 59.9941Z" fill="white"/>
<path d="M303.738 39.6875H311.902L330.569 65.2684H331.565V39.6875H338.849V80.0693H330.627L312.018 54.4884H310.963V80.0693H303.738V39.6875Z" fill="white"/>
<path d="M377.189 71.2274V80.0693H347.659V39.6875H376.898V48.5295H354.884V55.4912H374.964V64.0342H354.884V71.237H377.198L377.189 71.2274Z" fill="white"/>
<path d="M414.882 48.5197H402.028V80.0692H394.803V48.5197H381.948V39.6777H414.882V48.5197Z" fill="white"/>
<path d="M418.924 39.6875H426.613L435.541 66.3195H436.769L445.165 39.6875H451.568L460.021 66.3195H461.317L470.119 39.6875H478.282L465.312 80.0693H457.091L449.517 55.6069H447.699L440.125 80.0693H431.904L418.934 39.6875H418.924Z" fill="white"/>
<path d="M479.463 59.8782C479.463 47.9989 488.681 38.9834 500.897 38.9834C513.113 38.9834 522.33 47.9989 522.33 59.8782C522.33 71.7575 513.113 80.773 500.897 80.773C488.681 80.773 479.463 71.7575 479.463 59.8782ZM514.863 59.8782C514.863 53.09 508.818 47.9989 500.887 47.9989C492.956 47.9989 486.911 53.09 486.911 59.8782C486.911 66.6664 492.956 71.7575 500.887 71.7575C508.818 71.7575 514.863 66.6664 514.863 59.8782Z" fill="white"/>
<path d="M545.157 67.4283H536.414V80.0693H529.188V39.6875H547.74C555.903 39.6875 562.122 45.6561 562.122 53.5627C562.122 59.5313 558.602 64.391 553.321 66.4352L562.654 80.0693H553.853L545.167 67.4283H545.157ZM536.414 58.5863H547.566C551.909 58.5863 554.607 56.6 554.607 53.5531C554.607 50.5061 551.909 48.5198 547.566 48.5198H536.414V58.5863Z" fill="white"/>
<path d="M582.26 63.6195L576.041 68.8263V80.0596H568.815V39.6777H576.041V56.0117H577.511L593.131 39.6777H604.7L587.56 58.4609L605.115 80.0596H596.072L582.279 63.6099L582.26 63.6195Z" fill="white"/>
</svg>
