<svg width="161" height="14" viewBox="0 0 161 14" fill="none" xmlns="http://www.w3.org/2000/svg">
<path d="M56.9312 6.68323C56.9312 5.65575 57.829 4.85352 59.0046 4.85352C60.1802 4.85352 61.0781 5.65575 61.0781 6.68323C61.0781 7.71071 60.1987 8.49752 59.0046 8.49752C57.8105 8.49752 56.9312 7.7138 56.9312 6.68323Z" fill="#0F172A"/>
<path d="M0 0.225342H2.30489V13.1475H0V0.225342Z" fill="#0F172A"/>
<path d="M5.13135 0.225342H7.73553L13.6906 8.41124H14.0084V0.225342H16.3318V13.1475H13.7091L7.77256 4.96163H7.43624V13.1475H5.13135V0.225342Z" fill="#0F172A"/>
<path d="M30.8276 6.68644C30.8276 10.3767 27.9982 13.1475 24.2339 13.1475H19.1396V0.225342H24.2339C27.9982 0.225342 30.8276 2.99615 30.8276 6.68644ZM28.4487 6.68644C28.4487 4.60679 26.6128 3.05169 24.1598 3.05169H21.4445V10.3181H24.1598C26.6128 10.3181 28.4487 8.76299 28.4487 6.68335V6.68644Z" fill="#0F172A"/>
<path d="M42.4572 10.3181V13.1475H33.0371V0.225342H42.3647V3.05477H35.342V5.28252H41.7476V8.0163H35.342V10.3212H42.4603L42.4572 10.3181Z" fill="#0F172A"/>
<path d="M51.692 6.72346L55.9994 13.1475H53.3026L50.1184 8.59638H49.6679L46.5021 13.1475H43.5986L47.9986 6.59387L43.7653 0.225342H46.462L49.5722 4.73947H50.0042L53.1144 0.225342H56.0179L51.692 6.72346Z" fill="#0F172A"/>
<path d="M64.7534 0.225342H67.3576L73.3127 8.41124H73.6305V0.225342H75.9539V13.1475H73.3312L67.3946 4.96163H67.0583V13.1475H64.7534V0.225342Z" fill="#0F172A"/>
<path d="M88.1843 10.3181V13.1475H78.7642V0.225342H88.0917V3.05477H81.069V5.28252H87.4746V8.0163H81.069V10.3212H88.1874L88.1843 10.3181Z" fill="#0F172A"/>
<path d="M100.209 3.0516H96.1082V13.1474H93.8033V3.0516H89.7026V0.222168H100.209V3.0516Z" fill="#0F172A"/>
<path d="M101.499 0.225342H103.952L106.799 8.74757H107.191L109.87 0.225342H111.912L114.609 8.74757H115.022L117.83 0.225342H120.434L116.297 13.1475H113.674L111.258 5.31955H110.678L108.262 13.1475H105.639L101.502 0.225342H101.499Z" fill="#0F172A"/>
<path d="M120.811 6.68634C120.811 2.88497 123.752 0 127.649 0C131.546 0 134.486 2.88497 134.486 6.68634C134.486 10.4877 131.546 13.3727 127.649 13.3727C123.752 13.3727 120.811 10.4877 120.811 6.68634ZM132.104 6.68634C132.104 4.51413 130.176 2.88497 127.645 2.88497C125.115 2.88497 123.187 4.51413 123.187 6.68634C123.187 8.85855 125.115 10.4877 127.645 10.4877C130.176 10.4877 132.104 8.85855 132.104 6.68634Z" fill="#0F172A"/>
<path d="M141.768 9.1024H138.979V13.1475H136.674V0.225342H142.592C145.196 0.225342 147.18 2.13528 147.18 4.66541C147.18 6.57536 146.057 8.13046 144.372 8.78459L147.35 13.1475H144.542L141.771 9.1024H141.768ZM138.979 6.27297H142.536C143.922 6.27297 144.783 5.63735 144.783 4.66233C144.783 3.6873 143.922 3.05169 142.536 3.05169H138.979V6.27297Z" fill="#0F172A"/>
<path d="M153.604 7.88353L151.62 9.54972V13.1444H149.315V0.222168H151.62V5.44905H152.089L157.072 0.222168H160.762L155.295 6.23278L160.895 13.1444H158.01L153.61 7.88045L153.604 7.88353Z" fill="#0F172A"/>
</svg>
